# xmcd
#
# Track frame offsets:
#	150
#	9277
#	20902
#	33215
#	45975
#	59697
#	69670
#	79052
#	92630
#	109467
#	125105
#	138075
#
# Disc length: 1985 seconds
#
# Revision: 5
# Processed by: cddbd v1.5.2PL0 Copyright (c) Steve Scherf et al.
# Submitted via: audiograbber 1.83.01
#
DISCID=a007bf0c
DTITLE=Patsy Cline - 12 Greatest Hits
DYEAR=1988
DGENRE=Oldies
TTITLE0=Walking After Midnight
TTITLE1=Sweet Dreams (Of You)
TTITLE2=Crazy
TTITLE3=I Fall To Pieces
TTITLE4=So Wrong
TTITLE5=Strange
TTITLE6=Back In Baby's Arms
TTITLE7=She's Got You
TTITLE8=Faded Love
TTITLE9=Why Can't He Be You
TTITLE10=You're Stronger Than Me
TTITLE11=Leavin' On Your Mind
EXTD=
EXTT0=
EXTT1=
EXTT2=
EXTT3=
EXTT4=
EXTT5=
EXTT6=
EXTT7=
EXTT8=
EXTT9=
EXTT10=
EXTT11=
PLAYORDER=
